<svg width="145" height="102" viewBox="0 0 145 102" fill="none" xmlns="http://www.w3.org/2000/svg"><path d="M0 4.72307V37.7837V40.1452C0 42.7536 2.11453 44.8681 4.72294 44.8681H35.4221L48.0363 56.512C48.883 57.2935 50.2331 56.5236 49.9917 55.397L47.2295 42.5066H55.4946C58.103 42.5066 60.2175 40.3921 60.2175 37.7837V4.72307C60.2175 2.11466 58.103 0.00012207 55.4946 0.00012207H4.72295C2.11453 0.00012207 0 2.11466 0 4.72307Z" fill="url(#paint0_linear)"/><path d="M144.218 29.7231V62.7837V65.1452C144.218 67.7536 142.103 69.8681 139.495 69.8681H108.795L96.1813 81.512C95.3346 82.2935 93.9844 81.5236 94.2259 80.397L96.9881 67.5066H88.7229C86.1145 67.5066 84 65.3921 84 62.7837V29.7231C84 27.1147 86.1145 25.0001 88.7229 25.0001H139.495C142.103 25.0001 144.218 27.1147 144.218 29.7231Z" fill="url(#paint1_linear)"/><circle cx="100.5" cy="46.5001" r="3.5" fill="#F8F8F8"/><circle cx="113.5" cy="46.5001" r="3.5" fill="#F8F8F8"/><circle cx="126.5" cy="46.5001" r="3.5" fill="#F8F8F8"/><path d="M36 75.4102V92.2809V93.486C36 94.8171 37.0886 95.8961 38.4314 95.8961H54.2353L60.7291 101.838C61.1649 102.237 61.86 101.844 61.7357 101.269L60.3137 94.691H64.5686C65.9114 94.691 67 93.612 67 92.2809V75.4102C67 74.0792 65.9114 73.0001 64.5686 73.0001H38.4314C37.0886 73.0001 36 74.0792 36 75.4102Z" fill="#D67EE2"/><circle cx="16.5" cy="21.5001" r="3.5" fill="#F8F8F8"/><circle cx="29.5" cy="21.5001" r="3.5" fill="#F8F8F8"/><circle cx="42.5" cy="21.5001" r="3.5" fill="#F8F8F8"/><circle opacity="0.7" cx="44.0151" cy="84.3335" r="2.01515" fill="#F8F8F8"/><circle opacity="0.7" cx="51.4999" cy="84.3335" r="2.01515" fill="#F8F8F8"/><circle opacity="0.7" cx="58.9849" cy="84.3335" r="2.01515" fill="#F8F8F8"/><defs><linearGradient id="paint0_linear" x1="30.1088" y1="0.00012207" x2="30.1088" y2="56.8298" gradientUnits="userSpaceOnUse"><stop stop-color="#9A78FF"/><stop offset="1" stop-color="#835AFD"/></linearGradient><linearGradient id="paint1_linear" x1="114.109" y1="25.0001" x2="114.109" y2="81.8298" gradientUnits="userSpaceOnUse"><stop stop-color="#EF7EFF"/><stop offset="1" stop-color="#E554FA"/></linearGradient></defs></svg>