<svg xmlns="http://www.w3.org/2000/svg" width="154" height="150" fill="none" viewBox="0 0 154 150"><circle cx="75" cy="75" r="75" fill="#835AFD" opacity=".1"/><path fill="url(#paint0_linear)" d="M9 29.7231V62.7837V65.1452C9 67.7536 11.1145 69.8681 13.7229 69.8681H44.4221L57.0363 81.512C57.883 82.2935 59.2331 81.5236 58.9917 80.397L56.2295 67.5066H64.4946C67.103 67.5066 69.2175 65.3921 69.2175 62.7837V29.7231C69.2175 27.1147 67.103 25.0001 64.4946 25.0001H13.7229C11.1145 25.0001 9 27.1147 9 29.7231Z"/><path fill="url(#paint1_linear)" d="M153.218 54.7231V87.7837V90.1452C153.218 92.7536 151.103 94.8681 148.495 94.8681H117.795L105.181 106.512C104.335 107.294 102.984 106.524 103.226 105.397L105.988 92.5066H97.7229C95.1145 92.5066 93 90.3921 93 87.7837V54.7231C93 52.1147 95.1145 50.0001 97.7229 50.0001H148.495C151.103 50.0001 153.218 52.1147 153.218 54.7231Z"/><circle cx="109.5" cy="71.5" r="3.5" fill="#F8F8F8"/><circle cx="122.5" cy="71.5" r="3.5" fill="#F8F8F8"/><circle cx="135.5" cy="71.5" r="3.5" fill="#F8F8F8"/><path fill="#D67EE2" d="M45 100.41V117.281V118.486C45 119.817 46.0886 120.896 47.4314 120.896H63.2353L69.7291 126.838C70.1649 127.237 70.86 126.844 70.7357 126.269L69.3137 119.691H73.5686C74.9114 119.691 76 118.612 76 117.281V100.41C76 99.0792 74.9114 98.0001 73.5686 98.0001H47.4314C46.0886 98.0001 45 99.0792 45 100.41Z"/><circle cx="25.5" cy="46.5" r="3.5" fill="#F8F8F8"/><circle cx="38.5" cy="46.5" r="3.5" fill="#F8F8F8"/><circle cx="51.5" cy="46.5" r="3.5" fill="#F8F8F8"/><circle cx="53.015" cy="109.334" r="2.015" fill="#F8F8F8" opacity=".7"/><circle cx="60.5" cy="109.334" r="2.015" fill="#F8F8F8" opacity=".7"/><circle cx="67.985" cy="109.334" r="2.015" fill="#F8F8F8" opacity=".7"/><defs><linearGradient id="paint0_linear" x1="39.109" x2="39.109" y1="25" y2="81.83" gradientUnits="userSpaceOnUse"><stop stop-color="#9A78FF"/><stop offset="1" stop-color="#835AFD"/></linearGradient><linearGradient id="paint1_linear" x1="123.109" x2="123.109" y1="50" y2="106.83" gradientUnits="userSpaceOnUse"><stop stop-color="#EF7EFF"/><stop offset="1" stop-color="#E554FA"/></linearGradient></defs></svg>